<svg width="1200" height="630" viewBox="0 0 1200 630" fill="none" xmlns="http://www.w3.org/2000/svg">
  <rect width="1200" height="630" fill="#f6f2ea"/>
  <rect x="86" y="74" width="1028" height="482" rx="28" fill="#19211f"/>
  <path d="M133 452C264 321 351 335 457 386C563 437 665 440 769 331C873 222 983 197 1064 253V556H133V452Z" fill="#7ba7a0"/>
  <path d="M133 480C275 408 387 420 491 462C607 509 742 501 866 394C944 326 1019 316 1064 338V556H133V480Z" fill="#e8876f"/>
  <rect x="166" y="138" width="430" height="46" rx="23" fill="#f6f2ea"/>
  <rect x="166" y="217" width="620" height="28" rx="14" fill="#f6f2ea" fill-opacity=".72"/>
  <rect x="166" y="268" width="492" height="28" rx="14" fill="#f6f2ea" fill-opacity=".48"/>
  <rect x="166" y="352" width="184" height="54" rx="8" fill="#f6f2ea"/>
  <rect x="380" y="352" width="184" height="54" rx="8" fill="#f6f2ea" fill-opacity=".18"/>
  <text x="166" y="177" fill="#19211f" font-family="Inter, Arial, sans-serif" font-size="28" font-weight="700">xiaoxubeii</text>
</svg>
